<svg width="19" height="18" viewBox="0 0 19 18" fill="none" xmlns="http://www.w3.org/2000/svg">
<path d="M9.27696 0.14357C9.21479 -0.0477788 8.94408 -0.0477787 8.88191 0.14357L6.88093 6.30196C6.85312 6.38754 6.77338 6.44547 6.6834 6.44547H0.208084C0.00688744 6.44547 -0.076767 6.70293 0.0860043 6.82119L5.32465 10.6273C5.39744 10.6802 5.4279 10.7739 5.40009 10.8595L3.39911 17.0179C3.33694 17.2092 3.55595 17.3684 3.71872 17.2501L8.95736 13.444C9.03015 13.3911 9.12872 13.3911 9.20152 13.444L14.4402 17.2501C14.6029 17.3684 14.8219 17.2092 14.7598 17.0179L12.7588 10.8595C12.731 10.7739 12.7614 10.6802 12.8342 10.6273L18.0729 6.82119C18.2356 6.70293 18.152 6.44547 17.9508 6.44547H11.4755C11.3855 6.44547 11.3058 6.38754 11.2779 6.30196L9.27696 0.14357Z" fill="#EAC708"/>
</svg>
